<svg version="1.2" xmlns="http://www.w3.org/2000/svg" viewBox="0 0 1545 649" width="1545" height="649">
	<title>corporate-logo-svg</title>
	<style>
		.s0 { fill: #000000 } 
	</style>
	<path id="Layer" fill-rule="evenodd" class="s0" d="m840.3 0.2c131.7 0 240.9 181 240.5 340.9-0.4 165-132 307.7-307.8 307.7-179.4 0-307.8-118.8-307.8-273.2 0-128.1 82.5-136 190.7-212.2 123.9-87.4 97.5-163.2 184.3-163.2zm-0.2 15.2q0 0 0 0 0 0 0 0zm0 0c-38 0-47.8 15-69.4 48-19.4 29.5-45.9 69.9-106.2 112.4-26.4 18.7-51.5 33.4-73.7 46.4-68.9 40.4-110.5 64.8-110.5 153.4-0.1 17.3 1.7 34.5 5.2 51.4 3.5 16.8 8.8 33.3 15.8 49 7.1 15.8 15.7 30.8 25.9 44.7 10.2 13.9 21.8 26.7 34.6 38.2 53.7 48.2 128.6 74.8 211 74.8 79.7 0 153.9-31.1 208.8-87.4 13.3-13.6 25.2-28.4 35.6-44.2 10.4-15.9 19.2-32.7 26.4-50.2 7.2-17.6 12.6-35.8 16.3-54.4 3.6-18.5 5.5-37.5 5.5-56.4 0.2-96.8-42.5-204.8-106.3-268.8-37.1-37.3-78.2-56.9-119-56.9z"/>
	<path id="Layer" class="s0" d="m203.4 272.3q31.5 25.5 39.2 69.1h-54.4q-4.5-23.4-21.8-36.7-17.3-13.3-43.4-13.3c-4.7-0.1-9.3 0.3-13.8 1.1-4.6 0.9-9 2.2-13.3 4-4.2 1.8-8.3 4.1-12.1 6.7-3.8 2.7-7.3 5.7-10.4 9.1q-19.8 21-19.8 61.5 0 40.5 19.8 61.6c3.1 3.4 6.6 6.5 10.4 9.2 3.7 2.7 7.8 5 12 6.8 4.3 1.8 8.7 3.1 13.3 4 4.5 0.9 9.1 1.3 13.8 1.2q26.1 0 43.4-13.5 17.3-13.5 21.9-36.9h54.5q-7.7 43.7-39.2 69.3-31.6 25.6-79.7 25.6-36 0-63.7-15.3-6.9-3.8-13.1-8.5-6.3-4.8-11.8-10.4-5.5-5.6-10.2-11.9-4.6-6.3-8.3-13.3-15.7-28.8-15.7-67.9 0-38.7 15.7-67.5 3.7-7 8.3-13.3 4.7-6.3 10.2-11.9 5.5-5.6 11.8-10.4 6.2-4.7 13.1-8.5 27.7-15.3 63.7-15.3 48.1 0 79.6 25.4z"/>
	<path id="Layer" class="s0" d="m562 165h51.3v333h-51.3z"/>
	<path id="Layer" fill-rule="evenodd" class="s0" d="m908.5 373.8q0 39.1-16.2 67.9-3.8 7-8.7 13.4-4.8 6.4-10.5 12-5.8 5.6-12.2 10.3-6.5 4.7-13.6 8.4-7.4 3.9-15.3 6.8-7.9 3-16.1 4.9-8.2 1.9-16.5 2.8-8.4 1-16.8 0.8-36 0-64.6-15.3-7-3.7-13.5-8.5-6.5-4.7-12.2-10.4-5.7-5.6-10.5-12-4.9-6.4-8.8-13.4-16.4-29-16.4-67.7 0-38.7 16.4-67.5 3.9-7 8.8-13.4 4.8-6.3 10.6-11.9 5.7-5.6 12.1-10.3 6.5-4.8 13.5-8.5 28.6-15.3 64.6-15.3 8.4-0.2 16.8 0.8 8.3 0.9 16.5 2.8 8.2 1.9 16.1 4.9 7.9 2.9 15.3 6.8 7.1 3.7 13.6 8.4 6.4 4.7 12.1 10.3 5.8 5.6 10.6 12 4.8 6.4 8.7 13.4 16.2 28.8 16.2 67.5zm-52.6 0q0-27-10.1-45.7-2.3-4.3-5.1-8.3-2.9-4-6.3-7.5-3.4-3.5-7.3-6.5-3.8-3-8.1-5.4c-5.6-2.9-11.5-5.2-17.7-6.7-6.1-1.5-12.4-2.3-18.8-2.3-6.3 0-12.6 0.8-18.7 2.3-6.2 1.5-12.1 3.8-17.7 6.7q-4.3 2.4-8.2 5.4-3.9 3-7.3 6.5-3.4 3.5-6.2 7.5-2.9 4-5.1 8.3-10.1 18.7-10.1 45.7 0 27.4 10.1 45.9 2.3 4.3 5.1 8.2 2.9 4 6.3 7.5 3.4 3.5 7.3 6.4 3.8 3 8.1 5.3c5.6 3 11.5 5.2 17.7 6.7 6.1 1.6 12.4 2.3 18.7 2.3 6.4 0 12.7-0.7 18.8-2.3 6.2-1.5 12.1-3.7 17.7-6.7q4.2-2.3 8.1-5.3 3.9-2.9 7.3-6.4 3.4-3.5 6.2-7.5 2.9-3.9 5.2-8.2 10.1-18.5 10.1-45.9z"/>
	<path id="Layer" class="s0" d="m1238.2 156.4q9-8.5 23.8-8.5 14.8-0.1 24.1 8.5 2.2 2.1 4 4.5 1.7 2.5 2.9 5.3 1.2 2.8 1.8 5.8 0.6 3 0.5 6 0.1 3-0.5 5.9-0.5 3-1.7 5.7-1.2 2.7-3 5.2-1.8 2.4-4 4.3-9.3 8.1-24.1 8.1-14.8 0-23.8-8.1-2.3-2-4-4.4-1.7-2.4-2.9-5.1-1.2-2.8-1.7-5.7-0.6-2.9-0.4-5.9-0.1-3 0.4-6 0.6-3 1.7-5.8 1.2-2.8 2.9-5.2 1.8-2.5 4-4.6z"/>
	<path id="Layer" class="s0" d="m1236.4 250h51.2v248h-51.2z"/>
	<path id="Layer" fill-rule="evenodd" class="s0" d="m517.9 384.1h-195q1.3 38.3 21.1 56.7c13.2 12.3 31.8 18.5 51.3 18.5 19.5 0 38.1-6.2 51.3-18.5q3.1-2.9 5.7-6.3 2.7-3.4 4.9-7.1 2.1-3.7 3.8-7.7 1.6-4 2.7-8.1h50.2q-0.9 3.9-2.1 7.8-1.2 3.9-2.6 7.6-1.5 3.8-3.2 7.5-1.7 3.7-3.6 7.2-3.7 7-8.3 13.3-4.7 6.3-10.2 11.9-5.5 5.6-11.8 10.4-6.3 4.7-13.1 8.5-27.7 15.3-63.7 15.3-36 0-63.7-15.3-6.9-3.8-13.1-8.5-6.3-4.8-11.8-10.4-5.5-5.6-10.1-11.9-4.7-6.3-8.4-13.3-15.7-28.7-15.7-67.9 0-38.7 15.7-67.5 3.7-7 8.4-13.3 4.6-6.3 10.1-11.9 5.6-5.6 11.8-10.4 6.3-4.7 13.2-8.5 27.7-15.3 63.7-15.3 36 0 63.6 15.3 6.9 3.8 13.2 8.5 6.2 4.8 11.7 10.4 5.6 5.6 10.2 11.9 4.7 6.3 8.4 13.3 15.6 28.8 15.6 67.5 0 5.2-0.2 10.3zm-51.4-35.6q-4.2-27.1-20.9-42.2-20.2-18.4-50.4-18.5-30.1 0-50.4 18.5-16.6 15.2-20.8 42.2z"/>
	<path id="Layer" class="s0" d="m1156.6 273.2q26.1 28 26.1 79.9v144.9h-51.4v-139.5q0-33.3-17.1-51.6-17.2-18.4-47-18.3-30.6 0-49.1 19.6-18.6 19.6-18.6 57.5v132.2h-51.4v-247.3h51.4v44.8c13-24.7 42.5-50.1 87.6-50.1q43.3 0 69.5 27.9z"/>
	<path id="Layer" class="s0" d="m1538.3 322.4h-50c0-26.3-26.4-38.9-53.2-38.9-20.5 0-43.9 10.6-43.9 30.5 0 20.6 22.2 27.5 62.5 39 52.7 15.1 90.7 28.4 90.7 78.2 0 46.2-53.1 69.3-103.7 69.3-61.4 0-113.3-31.1-113.3-82.9h52.5c1.2 27.6 33.3 42 59.4 42 26.8 0 56-7.8 56-30.2 0-26-21.7-30.5-64.7-43.5-54-16.3-90.9-26.1-90.9-71.2 0-45.1 48.1-69.5 97.2-69.5 61.5 0 101.4 33.1 101.4 77.2z"/>
</svg>