<svg xmlns="http://www.w3.org/2000/svg" width="100%" height="100%" viewBox="0 0 124 20" fill="none" preserveAspectRatio="xMidYMid meet" aria-hidden="true" role="img">
<path fill-rule="evenodd" clip-rule="evenodd" d="M13.9272 0.5H10.4156L5.28369 8.17014H2.75041V0.5H0V10.6256H5.15527L11.0997 19.2739H14.8354L7.70489 9.48926L13.9272 0.5ZM23.7769 0.5H20.7812V19.2739H32.4695V16.5284H23.7769V0.5ZM43.5821 0.502899L37.4062 19.2768H40.7192L42.1678 14.6525H49.8734L51.3196 19.2768H54.4771L48.4562 0.5L43.5821 0.502899ZM43.0434 11.9575L46.0317 2.57791L49.0003 11.9575H43.0434ZM69.6592 11.1888L71.1619 13.7257V13.7233L74.4503 19.2739H71.066L66.6684 11.5643H62.9644V19.2739H59.9688V0.5H66.9513C71.1816 0.5 73.71 2.48361 73.71 5.80858C73.71 8.56538 72.2343 10.4625 69.6592 11.1888ZM67.1283 2.93567H62.9644V9.20271H67.1283C69.3567 9.20271 70.6381 7.9577 70.6381 6.0062C70.6381 4.0547 69.3616 2.93567 67.1283 2.93567ZM82.9957 0.5H80V19.2739H82.9957V0.5ZM94.6003 2.9332H89V0.5H103.191V2.9332H97.5935V19.2739H94.6003V2.9332ZM0 17.1076H2.75041V19.2716H0V17.1076ZM4.73267 12.7768H0V14.9408H4.73267V12.7768ZM114.991 8.93669L119.766 0.5H123.031L116.5 11.8355V19.5H113.531V11.8355L107 0.5H110.266L114.991 8.93669Z" fill="currentColor"></path>
</svg>