<svg fill="none" height="100%" viewBox="0 0 175 32" width="100%" xmlns="http://www.w3.org/2000/svg">
<path d="M4.01983 26.764C6.51616 23.973 7.89629 20.3599 7.89629 16.6154C7.89629 12.8709 6.51616 9.25777 4.01983 6.4668C1.53334 9.26255 0.15979 12.8739 0.15979 16.6154C0.15979 20.3569 1.53334 23.9682 4.01983 26.764Z" fill="currentColor"></path>
<path d="M27.0526 26.764C29.5489 23.973 30.9291 20.3599 30.9291 16.6154C30.9291 12.8709 29.5489 9.25777 27.0526 6.4668C24.5661 9.26255 23.1926 12.8739 23.1926 16.6154C23.1926 20.3569 24.5661 23.9682 27.0526 26.764Z" fill="currentColor"></path>
<path d="M5.39583 5.091C8.18681 7.58732 11.7999 8.96746 15.5444 8.96746C19.2889 8.96746 22.902 7.58733 25.693 5.091C22.8972 2.6045 19.2859 1.23096 15.5444 1.23096C11.8029 1.23096 8.19159 2.6045 5.39583 5.091Z" fill="currentColor"></path>
<path d="M5.39589 28.1237C8.18687 30.62 11.8 32.0002 15.5445 32.0002C19.289 32.0002 22.9021 30.62 25.6931 28.1237C22.8973 25.6372 19.286 24.2637 15.5445 24.2637C11.803 24.2637 8.19165 25.6372 5.39589 28.1237Z" fill="currentColor"></path>
<path d="M49.6941 25.3518V15.7272C49.6941 13.4605 51.1936 11.8215 53.3208 11.8215C55.3434 11.8215 56.7034 13.3559 56.7034 15.4831V25.3518H61.5854V14.4021C61.5854 10.3569 59.0049 7.49744 55.0295 7.49744C52.6234 7.49744 50.6705 8.50872 49.6941 10.2174V7.77641H44.8121V25.3518H49.6941Z" fill="currentColor"></path>
<path d="M76.8636 7.77641V17.401C76.8636 19.6328 75.3641 21.3067 73.2369 21.3067C71.2493 21.3067 69.8544 19.7723 69.8544 17.6451V7.77641H65.0072V18.7262C65.0072 22.7364 67.5877 25.6308 71.5282 25.6308C73.9344 25.6308 75.8872 24.5846 76.8636 22.9108V25.3518H81.7457V7.77641H76.8636Z" fill="currentColor"></path>
<path d="M90.1849 25.3518V15.3785C90.1849 13.1118 91.4752 11.6123 93.4977 11.6123C95.3808 11.6123 96.5664 13.1118 96.5664 15.3785V25.3518H101.448V15.3785C101.448 13.1118 102.739 11.6123 104.761 11.6123C106.644 11.6123 107.865 13.1118 107.865 15.3785V25.3518H112.712V13.8441C112.712 10.3221 110.236 7.49744 106.4 7.49744C103.576 7.49744 101.379 8.99693 100.542 10.7056C99.7049 8.61334 97.9264 7.49744 95.1716 7.49744C92.8003 7.49744 91.1264 8.64821 90.1849 10.2523V7.77641H85.3029V25.3518H90.1849Z" fill="currentColor"></path>
<path d="M128.01 19.3887C127.627 20.8882 126.336 21.6554 124.384 21.6554C121.942 21.6554 120.373 20.121 120.025 17.6451H132.648C132.683 17.2615 132.718 16.7385 132.718 16.0759C132.718 12.0656 130.242 7.49744 124.035 7.49744C118.072 7.49744 115.352 12.0656 115.352 16.5292C115.352 20.958 118.42 25.6308 124.384 25.6308C128.708 25.6308 132.055 23.1897 132.753 19.3887H128.01ZM124.035 11.0544C126.371 11.0544 127.731 12.6236 127.871 14.5764H120.094C120.513 12.1354 121.838 11.0544 124.035 11.0544Z" fill="currentColor"></path>
<path d="M146.661 7.77641H144.673C142.546 7.77641 141.221 8.50872 140.279 10.7056V7.77641H135.397V25.3518H140.279V16.8082C140.279 13.8092 141.36 11.8215 143.766 11.8215H146.661V7.77641Z" fill="currentColor"></path>
<path d="M148.707 5.16103H154.043V0H148.707V5.16103ZM153.799 25.3518V7.77641H148.917V25.3518H153.799Z" fill="currentColor"></path>
<path d="M165.522 25.6308C170.09 25.6308 173.717 22.7015 174.24 18.7959H169.288C168.94 20.3651 167.51 21.4462 165.731 21.4462C163.081 21.4462 161.512 19.4236 161.512 16.5641C161.512 13.7046 163.046 11.6472 165.662 11.6472C167.44 11.6472 168.94 12.798 169.219 14.3672H174.101C173.787 10.2872 170.125 7.49744 165.522 7.49744C160.082 7.49744 156.455 11.438 156.455 16.5641C156.455 21.6903 160.082 25.6308 165.522 25.6308Z" fill="currentColor"></path>
</svg>