<svg width="162" height="40" viewBox="0 0 162 40" fill="none" xmlns="http://www.w3.org/2000/svg">
<g clip-path="url(#clip0_1201_3)">
<mask id="mask0_1201_3" style="mask-type:luminance" maskUnits="userSpaceOnUse" x="0" y="0" width="162" height="40">
<path d="M161.443 0.284912H0V39.7573H161.443V0.284912Z" fill="white"/>
</mask>
<g mask="url(#mask0_1201_3)">
<path d="M18.2737 39.0756C16.9666 38.4891 15.8403 37.566 15.0111 36.4013L2.63161 19.326C1.79377 18.1628 1.2759 16.8017 1.12937 15.3775C0.982847 13.9534 1.21277 12.516 1.79632 11.2077C2.37988 9.89943 3.29679 8.7658 4.45607 7.91943C5.61536 7.073 6.97672 6.5432 8.4051 6.38252L29.4447 4.06926C30.8648 3.90446 32.3032 4.12283 33.6095 4.70151C34.9157 5.2802 36.0417 6.19791 36.8697 7.35861C37.7246 8.51373 38.2529 9.87603 38.3993 11.3036C38.5456 12.7311 38.305 14.1717 37.7021 15.4751L29.0553 34.877C28.4854 36.1852 27.58 37.3211 26.43 38.1708C25.2799 39.0204 23.9256 39.5538 22.5031 39.7174C21.061 39.8871 19.5997 39.6652 18.2737 39.0756ZM32.788 6.54297C31.7992 6.11803 30.7164 5.95673 29.6461 6.07497L8.60648 8.38825C7.53179 8.51114 6.50786 8.91121 5.63595 9.54891C4.76404 10.1866 4.07432 11.0399 3.63496 12.0244C3.19561 13.0088 3.02182 14.0905 3.13078 15.1623C3.23974 16.2342 3.62768 17.2591 4.25624 18.136L16.6491 35.2246C17.2727 36.101 18.1215 36.7943 19.1065 37.2319C20.0915 37.6694 21.1766 37.8351 22.248 37.7117C23.3257 37.5934 24.3529 37.1934 25.2253 36.5524C26.0977 35.9113 26.7845 35.0519 27.2159 34.0613L35.9299 14.6594C36.3803 13.6778 36.5606 12.5945 36.4521 11.5208C36.3436 10.4469 35.9501 9.42114 35.3122 8.54869C34.6629 7.67032 33.7921 6.97844 32.788 6.54297Z" fill="url(#paint0_linear_1201_3)"/>
<path d="M22.5974 1.43499L15.5349 5.58014C15.8034 5.58014 19.0527 5.19235 20.4625 5.05863L23.6312 3.20003C24.5785 2.64902 25.6558 2.35864 26.7529 2.35864C27.85 2.35864 28.9273 2.64902 29.8746 3.20003L31.3247 1.70244L30.8548 1.40827C29.598 0.687939 28.1725 0.311021 26.7224 0.315717C25.2724 0.320413 23.8494 0.706543 22.5974 1.43499Z" fill="url(#paint1_linear_1201_3)"/>
<path d="M29.8708 3.19786C30.8195 3.73549 31.6392 4.4886 32.1887 5.42792C32.7381 6.36724 33.0283 7.43452 33.0299 8.52163L33.1239 20.8099L35.1379 16.3573V8.5083C35.1321 7.15588 34.7892 5.82608 34.1401 4.63819C33.491 3.45031 32.4168 2.41895 31.2797 1.67969L29.8708 3.19786Z" fill="url(#paint2_linear_1201_3)"/>
<path d="M31.0696 34.6494C30.7777 34.8946 30.468 35.1181 30.1431 35.318C29.1974 35.8664 28.1225 36.1554 27.0281 36.1554C25.9337 36.1554 24.8589 35.8664 23.9131 35.318L11.8291 28.4451L14.7024 32.4565L22.9598 37.1231C24.2223 37.8429 25.6539 38.2166 27.1087 38.2062C28.5616 38.2 29.986 37.8027 31.2307 37.0562C31.7155 36.7641 32.1659 36.4188 32.5734 36.0266C32.0044 35.6466 31.4973 35.1822 31.0696 34.6494Z" fill="url(#paint3_linear_1201_3)"/>
<path d="M35.2585 29.9025V21.0774L33.2445 25.6772V29.9158C33.2558 30.8133 33.0692 31.7023 32.698 32.5201C32.3269 33.338 31.7064 34.1056 31.0225 34.6902C31.4492 35.2078 31.9557 35.7067 32.5169 36.0755C33.3727 35.3101 34.1234 34.2821 34.5843 33.2327C35.0452 32.1833 35.2751 31.0478 35.2585 29.9025Z" fill="url(#paint4_linear_1201_3)"/>
<path d="M2.85527 16.3196C3.39525 15.3802 4.17507 14.5999 5.11562 14.0575L16.1255 7.59912L11.1979 8.14734L4.10862 12.2925C2.85772 13.0256 1.8253 14.0771 1.11741 15.339C0.322324 16.7564 0.0285645 18.2508 0.0285645 19.9945H2.07263C2.01432 18.2896 2.29 17.3029 2.85527 16.3196Z" fill="url(#paint5_linear_1201_3)"/>
<path d="M7.45186 26.0249L5.19614 24.7546C4.32336 24.268 3.58328 23.5762 3.04037 22.7395C2.49744 21.9029 2.16814 20.9467 2.08115 19.9543H0.0268555C0.117154 21.3089 0.545 22.6198 1.27172 23.7684C1.99844 24.9171 3.00112 25.8672 4.18914 26.533L10.3654 30.023L7.49213 26.0116L7.45186 26.0249Z" fill="url(#paint6_linear_1201_3)"/>
<path d="M54.4857 12.0518H56.8488C57.0056 12.052 57.1587 12.0992 57.2881 12.1875C57.4175 12.2758 57.5171 12.4009 57.5738 12.5465L62.1926 24.3C62.2473 24.4495 62.3468 24.5786 62.4777 24.6699C62.6086 24.7612 62.7646 24.8102 62.9244 24.8102C63.0842 24.8102 63.2401 24.7612 63.371 24.6699C63.5019 24.5786 63.6015 24.4495 63.6561 24.3L68.0735 12.5732C68.1265 12.4241 68.2247 12.295 68.3546 12.204C68.4845 12.1129 68.6397 12.0644 68.7986 12.0652H70.8394C70.9676 12.0655 71.0938 12.0967 71.2072 12.1563C71.3206 12.2158 71.4178 12.3019 71.4904 12.4071C71.563 12.5123 71.6089 12.6335 71.6241 12.7603C71.6394 12.887 71.6235 13.0155 71.5779 13.1349L64.8645 30.0497C64.8077 30.1952 64.7081 30.3203 64.5788 30.4086C64.4494 30.4969 64.2963 30.5442 64.1395 30.5444H61.4407C61.2824 30.5433 61.128 30.4958 60.9966 30.4078C60.8653 30.3198 60.7629 30.1952 60.7022 30.0497L53.8009 13.1482C53.7478 13.032 53.7243 12.9043 53.7326 12.7769C53.7409 12.6494 53.7806 12.5258 53.8484 12.4174C53.9162 12.3089 54.0098 12.2187 54.121 12.1549C54.2322 12.0912 54.3575 12.0557 54.4857 12.0518Z" fill="#140E2A"/>
<path d="M81.0038 12.0518H82.655C82.9039 12.0518 83.1432 12.1504 83.3193 12.3259C83.4954 12.5015 83.595 12.7395 83.595 12.9878V29.595C83.5913 29.8422 83.491 30.0783 83.3156 30.2531C83.1402 30.4279 82.9032 30.5276 82.655 30.5311H81.0038C80.7541 30.5311 80.5148 30.4324 80.3387 30.2569C80.1626 30.0814 80.0637 29.8433 80.0637 29.595V12.9878C80.0637 12.7395 80.1626 12.5015 80.3387 12.3259C80.5148 12.1504 80.7541 12.0518 81.0038 12.0518Z" fill="#140E2A"/>
<path d="M107.199 16.6247C107.106 16.7161 106.98 16.7674 106.85 16.7674C106.719 16.7674 106.594 16.7161 106.501 16.6247C105.993 16.1448 105.418 15.7395 104.796 15.4213C103.991 15.0573 103.115 14.8791 102.231 14.8998C101.361 14.8791 100.497 15.0575 99.7067 15.4213C99.0022 15.7564 98.3861 16.251 97.9076 16.8654C97.4104 17.4893 97.0366 18.2018 96.807 18.9647C96.5588 19.7661 96.4325 20.5998 96.431 21.4384C96.428 22.2685 96.5737 23.0926 96.8605 23.872C97.1325 24.6135 97.5479 25.2948 98.0822 25.8777C98.6054 26.4521 99.2467 26.908 99.9623 27.2149C100.738 27.546 101.575 27.71 102.419 27.6962C103.298 27.7201 104.171 27.5416 104.97 27.1747C105.562 26.8753 106.102 26.4824 106.568 26.0114C106.614 25.9641 106.67 25.9265 106.731 25.9009C106.792 25.8752 106.858 25.862 106.924 25.862C106.99 25.862 107.055 25.8752 107.117 25.9009C107.178 25.9265 107.233 25.9641 107.28 26.0114L109.079 27.7898C109.171 27.8847 109.223 28.0118 109.223 28.1441C109.223 28.2765 109.171 28.4036 109.079 28.4985C108.278 29.3119 107.306 29.9376 106.232 30.3304C104.995 30.7673 103.691 30.989 102.379 30.9856C101.035 31.0038 99.7 30.7678 98.4449 30.2903C97.2982 29.8472 96.2564 29.1736 95.3832 28.3113C94.5078 27.4524 93.8256 26.4177 93.3827 25.276C92.9027 24.0261 92.6656 22.6964 92.6849 21.3581C92.6678 20.0158 92.9042 18.6821 93.3827 17.427C93.8241 16.279 94.4959 15.2326 95.3564 14.3515C96.2274 13.4797 97.2692 12.7968 98.4181 12.3458C99.6784 11.8507 101.023 11.6053 102.379 11.6238C103.711 11.6189 105.032 11.8638 106.272 12.3458C107.339 12.7534 108.312 13.3721 109.132 14.1644C109.23 14.2621 109.285 14.3942 109.285 14.5321C109.285 14.6698 109.23 14.8021 109.132 14.8998L107.199 16.6247Z" fill="#140E2A"/>
<path d="M158.69 12.0518H160.677C160.882 12.0553 161.076 12.1385 161.219 12.2836C161.363 12.4287 161.443 12.6239 161.443 12.8273V29.7555C161.443 29.9589 161.363 30.1541 161.219 30.2992C161.076 30.4443 160.882 30.5275 160.677 30.5311H158.69C158.588 30.5311 158.488 30.5109 158.395 30.4718C158.301 30.4327 158.215 30.3753 158.144 30.3031C158.073 30.2309 158.017 30.1453 157.979 30.0513C157.942 29.9573 157.923 29.8567 157.925 29.7555V12.8808C157.916 12.7752 157.929 12.6689 157.963 12.5686C157.997 12.4682 158.052 12.3761 158.124 12.2981C158.196 12.2201 158.284 12.1579 158.381 12.1155C158.479 12.0731 158.584 12.0514 158.69 12.0518Z" fill="#140E2A"/>
<path d="M138.081 12.0518H140.765C140.946 12.0532 141.122 12.1089 141.271 12.2115C141.419 12.314 141.533 12.4587 141.598 12.6267L148.177 29.3009C148.229 29.4378 148.247 29.5852 148.229 29.7305C148.211 29.8758 148.159 30.0148 148.076 30.1356C147.993 30.2563 147.882 30.3553 147.752 30.4242C147.623 30.493 147.478 30.5298 147.332 30.5311H145.492C145.309 30.5304 145.131 30.4736 144.982 30.3683C144.833 30.2629 144.72 30.1143 144.659 29.9427L140.376 18.5636C140.311 18.3949 140.195 18.2499 140.046 18.1476C139.896 18.0453 139.718 17.9906 139.537 17.9906C139.356 17.9906 139.178 18.0453 139.028 18.1476C138.879 18.2499 138.763 18.3949 138.698 18.5636L134.213 29.9695C134.149 30.1375 134.035 30.2822 133.886 30.3847C133.738 30.4873 133.562 30.5429 133.381 30.5444H131.259C131.112 30.5418 130.967 30.5035 130.838 30.433C130.709 30.3626 130.598 30.2619 130.516 30.1397C130.435 30.0175 130.384 29.8773 130.368 29.7312C130.353 29.5852 130.373 29.4375 130.427 29.3009L137.247 12.6267C137.314 12.4598 137.429 12.3161 137.577 12.2138C137.725 12.1114 137.9 12.055 138.081 12.0518Z" fill="#140E2A"/>
<path d="M118.974 27.7096L118.142 29.8624C118.109 29.9376 118.097 30.0195 118.106 30.1007C118.115 30.1818 118.144 30.2595 118.191 30.3263C118.238 30.3932 118.301 30.447 118.375 30.4829C118.448 30.5186 118.53 30.5352 118.612 30.531H120.827C120.925 30.5292 121.02 30.5009 121.103 30.4491C121.186 30.3972 121.253 30.3238 121.297 30.2369L122.13 28.0975C122.162 28.0223 122.173 27.9403 122.165 27.8592C122.156 27.778 122.127 27.7003 122.081 27.6335C122.033 27.5667 121.97 27.5129 121.896 27.477C121.823 27.4412 121.741 27.4246 121.659 27.4289H119.444C119.347 27.4263 119.252 27.4513 119.168 27.5011C119.085 27.5508 119.017 27.6232 118.974 27.7096Z" fill="#140E2A"/>
</g>
</g>
<defs>
<linearGradient id="paint0_linear_1201_3" x1="1.07412" y1="21.8934" x2="38.4272" y2="21.8934" gradientUnits="userSpaceOnUse">
<stop stop-color="#9B40F4"/>
<stop offset="0.24" stop-color="#894CF3"/>
<stop offset="0.74" stop-color="#596BF1"/>
<stop offset="1" stop-color="#3D7EEF"/>
</linearGradient>
<linearGradient id="paint1_linear_1201_3" x1="25.0813" y1="-0.851541" x2="21.9089" y2="7.88846" gradientUnits="userSpaceOnUse">
<stop stop-color="#00ADEE"/>
<stop offset="0.35" stop-color="#00ADEE"/>
<stop offset="0.52" stop-color="#00ADEE" stop-opacity="0.77"/>
<stop offset="0.89" stop-color="#00ADEE" stop-opacity="0.18"/>
<stop offset="1" stop-color="#00ADEE" stop-opacity="0"/>
</linearGradient>
<linearGradient id="paint2_linear_1201_3" x1="31.7946" y1="1.59525" x2="35.1112" y2="20.4402" gradientUnits="userSpaceOnUse">
<stop stop-color="#00ADEE"/>
<stop offset="0.42" stop-color="#00ADEE"/>
<stop offset="0.56" stop-color="#00ADEE" stop-opacity="0.77"/>
<stop offset="0.9" stop-color="#00ADEE" stop-opacity="0.18"/>
<stop offset="1" stop-color="#00ADEE" stop-opacity="0"/>
</linearGradient>
<linearGradient id="paint3_linear_1201_3" x1="32.5599" y1="33.3657" x2="11.7754" y2="33.3657" gradientUnits="userSpaceOnUse">
<stop stop-color="#00ADEE"/>
<stop offset="0.41" stop-color="#00ADEE"/>
<stop offset="0.51" stop-color="#00ADEE" stop-opacity="0.85"/>
<stop offset="0.74" stop-color="#00ADEE" stop-opacity="0.46"/>
<stop offset="1" stop-color="#00ADEE" stop-opacity="0"/>
</linearGradient>
<linearGradient id="paint4_linear_1201_3" x1="36.4938" y1="30.0629" x2="31.6166" y2="27.2376" gradientUnits="userSpaceOnUse">
<stop stop-color="#00ADEE"/>
<stop offset="0.41" stop-color="#00ADEE"/>
<stop offset="0.55" stop-color="#00ADEE" stop-opacity="0.77"/>
<stop offset="0.89" stop-color="#00ADEE" stop-opacity="0.18"/>
<stop offset="0.99" stop-color="#00ADEE" stop-opacity="0"/>
</linearGradient>
<linearGradient id="paint5_linear_1201_3" x1="8.05609" y1="19.9543" x2="8.05609" y2="7.55897" gradientUnits="userSpaceOnUse">
<stop stop-color="#00ADEE"/>
<stop offset="0.41" stop-color="#00ADEE"/>
<stop offset="0.56" stop-color="#00ADEE" stop-opacity="0.77"/>
<stop offset="0.9" stop-color="#00ADEE" stop-opacity="0.18"/>
<stop offset="1" stop-color="#00ADEE" stop-opacity="0"/>
</linearGradient>
<linearGradient id="paint6_linear_1201_3" x1="1.49037" y1="25.9715" x2="8.75015" y2="24.0176" gradientUnits="userSpaceOnUse">
<stop stop-color="#00ADEE"/>
<stop offset="0.28" stop-color="#00ADEE"/>
<stop offset="0.46" stop-color="#00ADEE" stop-opacity="0.77"/>
<stop offset="0.88" stop-color="#00ADEE" stop-opacity="0.18"/>
<stop offset="1" stop-color="#00ADEE" stop-opacity="0"/>
</linearGradient>
<clipPath id="clip0_1201_3">
<rect width="162" height="40" fill="white"/>
</clipPath>
</defs>
</svg>
